<mxfile host="app.diagrams.net" agent="Mozilla/5.0 (Windows NT 10.0; Win64; x64) AppleWebKit/537.36 (KHTML, like Gecko) Chrome/129.0.0.0 Safari/537.36" version="24.7.17">
  <diagram name="Page-1" id="QNlDdv6C0ZCmeqzFmTSJ">
    <mxGraphModel dx="1877" dy="557" grid="1" gridSize="10" guides="1" tooltips="1" connect="1" arrows="1" fold="1" page="1" pageScale="1" pageWidth="827" pageHeight="1169" math="0" shadow="0">
      <root>
        <mxCell id="0" />
        <mxCell id="1" parent="0" />
        <mxCell id="K9Tvqyu0-MTq7fCI-RxS-1" value="USER" style="rounded=0;whiteSpace=wrap;html=1;" vertex="1" parent="1">
          <mxGeometry x="190" y="265" width="120" height="60" as="geometry" />
        </mxCell>
        <mxCell id="K9Tvqyu0-MTq7fCI-RxS-2" value="CUSTOMER" style="rounded=0;whiteSpace=wrap;html=1;" vertex="1" parent="1">
          <mxGeometry x="960" y="260" width="120" height="60" as="geometry" />
        </mxCell>
        <mxCell id="K9Tvqyu0-MTq7fCI-RxS-4" value="ID" style="ellipse;whiteSpace=wrap;html=1;" vertex="1" parent="1">
          <mxGeometry x="-100" y="240" width="120" height="50" as="geometry" />
        </mxCell>
        <mxCell id="K9Tvqyu0-MTq7fCI-RxS-5" value="NAME" style="ellipse;whiteSpace=wrap;html=1;" vertex="1" parent="1">
          <mxGeometry x="20" y="130" width="120" height="50" as="geometry" />
        </mxCell>
        <mxCell id="K9Tvqyu0-MTq7fCI-RxS-6" value="EMAIL" style="ellipse;whiteSpace=wrap;html=1;" vertex="1" parent="1">
          <mxGeometry x="200" y="70" width="120" height="50" as="geometry" />
        </mxCell>
        <mxCell id="K9Tvqyu0-MTq7fCI-RxS-7" value="ROLE" style="ellipse;whiteSpace=wrap;html=1;" vertex="1" parent="1">
          <mxGeometry x="-70" y="340" width="120" height="50" as="geometry" />
        </mxCell>
        <mxCell id="K9Tvqyu0-MTq7fCI-RxS-8" value="PASSWORD" style="ellipse;whiteSpace=wrap;html=1;" vertex="1" parent="1">
          <mxGeometry x="380" y="160" width="120" height="50" as="geometry" />
        </mxCell>
        <mxCell id="K9Tvqyu0-MTq7fCI-RxS-9" value="IMAGE" style="ellipse;whiteSpace=wrap;html=1;" vertex="1" parent="1">
          <mxGeometry x="470" y="250" width="120" height="50" as="geometry" />
        </mxCell>
        <mxCell id="K9Tvqyu0-MTq7fCI-RxS-10" value="ABOUT" style="ellipse;whiteSpace=wrap;html=1;" vertex="1" parent="1">
          <mxGeometry x="430" y="350" width="120" height="50" as="geometry" />
        </mxCell>
        <mxCell id="K9Tvqyu0-MTq7fCI-RxS-11" value="NAME" style="ellipse;whiteSpace=wrap;html=1;" vertex="1" parent="1">
          <mxGeometry x="750" y="250" width="120" height="50" as="geometry" />
        </mxCell>
        <mxCell id="K9Tvqyu0-MTq7fCI-RxS-12" value="NICKNAME" style="ellipse;whiteSpace=wrap;html=1;" vertex="1" parent="1">
          <mxGeometry x="790" y="150" width="120" height="50" as="geometry" />
        </mxCell>
        <mxCell id="K9Tvqyu0-MTq7fCI-RxS-13" value="WORK" style="ellipse;whiteSpace=wrap;html=1;" vertex="1" parent="1">
          <mxGeometry x="940" y="110" width="120" height="50" as="geometry" />
        </mxCell>
        <mxCell id="K9Tvqyu0-MTq7fCI-RxS-14" value="EMAIL" style="ellipse;whiteSpace=wrap;html=1;" vertex="1" parent="1">
          <mxGeometry x="1110" y="130" width="120" height="50" as="geometry" />
        </mxCell>
        <mxCell id="K9Tvqyu0-MTq7fCI-RxS-15" value="IMAGE" style="ellipse;whiteSpace=wrap;html=1;" vertex="1" parent="1">
          <mxGeometry x="1160" y="240" width="120" height="50" as="geometry" />
        </mxCell>
        <mxCell id="K9Tvqyu0-MTq7fCI-RxS-16" value="DISCRIPTION" style="ellipse;whiteSpace=wrap;html=1;" vertex="1" parent="1">
          <mxGeometry x="1160" y="340" width="120" height="50" as="geometry" />
        </mxCell>
        <mxCell id="K9Tvqyu0-MTq7fCI-RxS-17" value="ID" style="ellipse;whiteSpace=wrap;html=1;" vertex="1" parent="1">
          <mxGeometry x="790" y="350" width="120" height="50" as="geometry" />
        </mxCell>
        <mxCell id="K9Tvqyu0-MTq7fCI-RxS-18" value="PHONE-NUMBER" style="ellipse;whiteSpace=wrap;html=1;" vertex="1" parent="1">
          <mxGeometry x="1070" y="400" width="120" height="50" as="geometry" />
        </mxCell>
        <mxCell id="K9Tvqyu0-MTq7fCI-RxS-19" value="ENABLED" style="ellipse;whiteSpace=wrap;html=1;" vertex="1" parent="1">
          <mxGeometry x="30" y="400" width="120" height="50" as="geometry" />
        </mxCell>
        <mxCell id="K9Tvqyu0-MTq7fCI-RxS-20" value="HAS" style="rhombus;whiteSpace=wrap;html=1;" vertex="1" parent="1">
          <mxGeometry x="640" y="570" width="80" height="80" as="geometry" />
        </mxCell>
        <mxCell id="K9Tvqyu0-MTq7fCI-RxS-21" value="" style="endArrow=classic;html=1;rounded=0;exitX=0.408;exitY=0.973;exitDx=0;exitDy=0;exitPerimeter=0;entryX=0;entryY=0.5;entryDx=0;entryDy=0;" edge="1" parent="1" source="K9Tvqyu0-MTq7fCI-RxS-1" target="K9Tvqyu0-MTq7fCI-RxS-20">
          <mxGeometry width="50" height="50" relative="1" as="geometry">
            <mxPoint x="540" y="620" as="sourcePoint" />
            <mxPoint x="590" y="570" as="targetPoint" />
          </mxGeometry>
        </mxCell>
        <mxCell id="K9Tvqyu0-MTq7fCI-RxS-22" value="" style="endArrow=classic;html=1;rounded=0;exitX=1;exitY=0.5;exitDx=0;exitDy=0;entryX=0.422;entryY=1.043;entryDx=0;entryDy=0;entryPerimeter=0;" edge="1" parent="1" source="K9Tvqyu0-MTq7fCI-RxS-20" target="K9Tvqyu0-MTq7fCI-RxS-2">
          <mxGeometry width="50" height="50" relative="1" as="geometry">
            <mxPoint x="649.5" y="480" as="sourcePoint" />
            <mxPoint x="1050.5" y="767" as="targetPoint" />
          </mxGeometry>
        </mxCell>
        <mxCell id="K9Tvqyu0-MTq7fCI-RxS-23" value="" style="endArrow=none;html=1;rounded=0;exitX=1;exitY=1;exitDx=0;exitDy=0;entryX=0;entryY=0.5;entryDx=0;entryDy=0;" edge="1" parent="1" source="K9Tvqyu0-MTq7fCI-RxS-1" target="K9Tvqyu0-MTq7fCI-RxS-10">
          <mxGeometry width="50" height="50" relative="1" as="geometry">
            <mxPoint x="580" y="320" as="sourcePoint" />
            <mxPoint x="630" y="270" as="targetPoint" />
          </mxGeometry>
        </mxCell>
        <mxCell id="K9Tvqyu0-MTq7fCI-RxS-24" value="" style="endArrow=none;html=1;rounded=0;exitX=1;exitY=0.25;exitDx=0;exitDy=0;entryX=0;entryY=0.5;entryDx=0;entryDy=0;" edge="1" parent="1" source="K9Tvqyu0-MTq7fCI-RxS-1" target="K9Tvqyu0-MTq7fCI-RxS-9">
          <mxGeometry width="50" height="50" relative="1" as="geometry">
            <mxPoint x="320" y="335" as="sourcePoint" />
            <mxPoint x="440" y="385" as="targetPoint" />
          </mxGeometry>
        </mxCell>
        <mxCell id="K9Tvqyu0-MTq7fCI-RxS-25" value="" style="endArrow=none;html=1;rounded=0;exitX=1;exitY=0;exitDx=0;exitDy=0;entryX=0;entryY=0.5;entryDx=0;entryDy=0;" edge="1" parent="1" source="K9Tvqyu0-MTq7fCI-RxS-1" target="K9Tvqyu0-MTq7fCI-RxS-8">
          <mxGeometry width="50" height="50" relative="1" as="geometry">
            <mxPoint x="320" y="290" as="sourcePoint" />
            <mxPoint x="480" y="285" as="targetPoint" />
          </mxGeometry>
        </mxCell>
        <mxCell id="K9Tvqyu0-MTq7fCI-RxS-26" value="" style="endArrow=none;html=1;rounded=0;exitX=0.5;exitY=0;exitDx=0;exitDy=0;entryX=0.5;entryY=1;entryDx=0;entryDy=0;" edge="1" parent="1" source="K9Tvqyu0-MTq7fCI-RxS-1" target="K9Tvqyu0-MTq7fCI-RxS-6">
          <mxGeometry width="50" height="50" relative="1" as="geometry">
            <mxPoint x="320" y="275" as="sourcePoint" />
            <mxPoint x="390" y="195" as="targetPoint" />
          </mxGeometry>
        </mxCell>
        <mxCell id="K9Tvqyu0-MTq7fCI-RxS-27" value="" style="endArrow=none;html=1;rounded=0;exitX=0;exitY=0;exitDx=0;exitDy=0;entryX=1;entryY=1;entryDx=0;entryDy=0;" edge="1" parent="1" source="K9Tvqyu0-MTq7fCI-RxS-1" target="K9Tvqyu0-MTq7fCI-RxS-5">
          <mxGeometry width="50" height="50" relative="1" as="geometry">
            <mxPoint x="260" y="275" as="sourcePoint" />
            <mxPoint x="270" y="130" as="targetPoint" />
          </mxGeometry>
        </mxCell>
        <mxCell id="K9Tvqyu0-MTq7fCI-RxS-28" value="" style="endArrow=none;html=1;rounded=0;exitX=0;exitY=0.25;exitDx=0;exitDy=0;entryX=1;entryY=0.5;entryDx=0;entryDy=0;" edge="1" parent="1" source="K9Tvqyu0-MTq7fCI-RxS-1" target="K9Tvqyu0-MTq7fCI-RxS-4">
          <mxGeometry width="50" height="50" relative="1" as="geometry">
            <mxPoint x="200" y="275" as="sourcePoint" />
            <mxPoint x="132" y="183" as="targetPoint" />
          </mxGeometry>
        </mxCell>
        <mxCell id="K9Tvqyu0-MTq7fCI-RxS-29" value="" style="endArrow=none;html=1;rounded=0;exitX=0;exitY=0.75;exitDx=0;exitDy=0;entryX=1;entryY=0.5;entryDx=0;entryDy=0;" edge="1" parent="1" source="K9Tvqyu0-MTq7fCI-RxS-1" target="K9Tvqyu0-MTq7fCI-RxS-7">
          <mxGeometry width="50" height="50" relative="1" as="geometry">
            <mxPoint x="200" y="290" as="sourcePoint" />
            <mxPoint x="30" y="275" as="targetPoint" />
          </mxGeometry>
        </mxCell>
        <mxCell id="K9Tvqyu0-MTq7fCI-RxS-30" value="" style="endArrow=none;html=1;rounded=0;entryX=1;entryY=0;entryDx=0;entryDy=0;exitX=0;exitY=1;exitDx=0;exitDy=0;" edge="1" parent="1" source="K9Tvqyu0-MTq7fCI-RxS-1" target="K9Tvqyu0-MTq7fCI-RxS-19">
          <mxGeometry width="50" height="50" relative="1" as="geometry">
            <mxPoint x="190" y="320" as="sourcePoint" />
            <mxPoint x="60" y="375" as="targetPoint" />
          </mxGeometry>
        </mxCell>
        <mxCell id="K9Tvqyu0-MTq7fCI-RxS-31" value="" style="endArrow=none;html=1;rounded=0;exitX=0;exitY=1;exitDx=0;exitDy=0;entryX=1;entryY=0;entryDx=0;entryDy=0;" edge="1" parent="1" source="K9Tvqyu0-MTq7fCI-RxS-2" target="K9Tvqyu0-MTq7fCI-RxS-17">
          <mxGeometry width="50" height="50" relative="1" as="geometry">
            <mxPoint x="1040" y="320" as="sourcePoint" />
            <mxPoint x="1090" y="270" as="targetPoint" />
          </mxGeometry>
        </mxCell>
        <mxCell id="K9Tvqyu0-MTq7fCI-RxS-32" value="" style="endArrow=none;html=1;rounded=0;exitX=0;exitY=0.5;exitDx=0;exitDy=0;entryX=1;entryY=0.5;entryDx=0;entryDy=0;" edge="1" parent="1" source="K9Tvqyu0-MTq7fCI-RxS-2" target="K9Tvqyu0-MTq7fCI-RxS-11">
          <mxGeometry width="50" height="50" relative="1" as="geometry">
            <mxPoint x="1000" y="330" as="sourcePoint" />
            <mxPoint x="902" y="367" as="targetPoint" />
          </mxGeometry>
        </mxCell>
        <mxCell id="K9Tvqyu0-MTq7fCI-RxS-33" value="" style="endArrow=none;html=1;rounded=0;exitX=0;exitY=0;exitDx=0;exitDy=0;entryX=1;entryY=1;entryDx=0;entryDy=0;" edge="1" parent="1" source="K9Tvqyu0-MTq7fCI-RxS-2" target="K9Tvqyu0-MTq7fCI-RxS-12">
          <mxGeometry width="50" height="50" relative="1" as="geometry">
            <mxPoint x="1000" y="315" as="sourcePoint" />
            <mxPoint x="880" y="285" as="targetPoint" />
          </mxGeometry>
        </mxCell>
        <mxCell id="K9Tvqyu0-MTq7fCI-RxS-34" value="" style="endArrow=none;html=1;rounded=0;exitX=0.5;exitY=0;exitDx=0;exitDy=0;entryX=0.5;entryY=1;entryDx=0;entryDy=0;" edge="1" parent="1" source="K9Tvqyu0-MTq7fCI-RxS-2" target="K9Tvqyu0-MTq7fCI-RxS-13">
          <mxGeometry width="50" height="50" relative="1" as="geometry">
            <mxPoint x="1000" y="300" as="sourcePoint" />
            <mxPoint x="902" y="203" as="targetPoint" />
          </mxGeometry>
        </mxCell>
        <mxCell id="K9Tvqyu0-MTq7fCI-RxS-35" value="" style="endArrow=none;html=1;rounded=0;exitX=1;exitY=0;exitDx=0;exitDy=0;entryX=0;entryY=1;entryDx=0;entryDy=0;" edge="1" parent="1" source="K9Tvqyu0-MTq7fCI-RxS-2" target="K9Tvqyu0-MTq7fCI-RxS-14">
          <mxGeometry width="50" height="50" relative="1" as="geometry">
            <mxPoint x="1030" y="270" as="sourcePoint" />
            <mxPoint x="1010" y="140" as="targetPoint" />
          </mxGeometry>
        </mxCell>
        <mxCell id="K9Tvqyu0-MTq7fCI-RxS-36" value="" style="endArrow=none;html=1;rounded=0;exitX=1;exitY=0.25;exitDx=0;exitDy=0;entryX=0;entryY=0.5;entryDx=0;entryDy=0;" edge="1" parent="1" source="K9Tvqyu0-MTq7fCI-RxS-2" target="K9Tvqyu0-MTq7fCI-RxS-15">
          <mxGeometry width="50" height="50" relative="1" as="geometry">
            <mxPoint x="1090" y="270" as="sourcePoint" />
            <mxPoint x="1138" y="203" as="targetPoint" />
          </mxGeometry>
        </mxCell>
        <mxCell id="K9Tvqyu0-MTq7fCI-RxS-37" value="" style="endArrow=none;html=1;rounded=0;exitX=1;exitY=1;exitDx=0;exitDy=0;entryX=0;entryY=0;entryDx=0;entryDy=0;" edge="1" parent="1" source="K9Tvqyu0-MTq7fCI-RxS-2" target="K9Tvqyu0-MTq7fCI-RxS-16">
          <mxGeometry width="50" height="50" relative="1" as="geometry">
            <mxPoint x="1090" y="285" as="sourcePoint" />
            <mxPoint x="1170" y="275" as="targetPoint" />
          </mxGeometry>
        </mxCell>
        <mxCell id="K9Tvqyu0-MTq7fCI-RxS-38" value="" style="endArrow=none;html=1;rounded=0;exitX=0.75;exitY=1;exitDx=0;exitDy=0;entryX=0;entryY=0;entryDx=0;entryDy=0;" edge="1" parent="1" source="K9Tvqyu0-MTq7fCI-RxS-2" target="K9Tvqyu0-MTq7fCI-RxS-18">
          <mxGeometry width="50" height="50" relative="1" as="geometry">
            <mxPoint x="1090" y="330" as="sourcePoint" />
            <mxPoint x="1188" y="357" as="targetPoint" />
          </mxGeometry>
        </mxCell>
      </root>
    </mxGraphModel>
  </diagram>
</mxfile>
